G75*
G70*
%OFA0B0*%
%FSLAX24Y24*%
%IPPOS*%
%LPD*%
%AMOC8*
5,1,8,0,0,1.08239X$1,22.5*
%
%ADD10C,0.0740*%
%ADD11R,0.0984X0.0197*%
%ADD12R,0.0984X0.0787*%
%ADD13R,0.0315X0.0315*%
%ADD14R,0.0394X0.0433*%
%ADD15R,0.0630X0.0748*%
%ADD16R,0.0433X0.0394*%
%ADD17R,0.0591X0.0157*%
%ADD18R,0.0394X0.0709*%
%ADD19C,0.0100*%
%ADD20C,0.0400*%
%ADD21C,0.0120*%
%ADD22C,0.0160*%
D10*
X024833Y007000D03*
X024833Y008000D03*
X024833Y009000D03*
X024833Y010000D03*
X024833Y011000D03*
X024833Y012000D03*
X024833Y013000D03*
D11*
X009318Y010130D03*
X009318Y009815D03*
X009318Y009500D03*
X009318Y009185D03*
X009318Y008870D03*
D12*
X009318Y007728D03*
X007152Y007728D03*
X007152Y011272D03*
X009318Y011272D03*
D13*
X017833Y010795D03*
X017833Y010205D03*
X019833Y010205D03*
X019833Y010795D03*
D14*
X019833Y012665D03*
X019833Y013335D03*
X017833Y013335D03*
X017833Y012665D03*
X012833Y012665D03*
X012833Y013335D03*
X011333Y012335D03*
X011333Y011665D03*
X012833Y011335D03*
X012833Y010665D03*
D15*
X014833Y011850D03*
X014833Y013150D03*
D16*
X011668Y009500D03*
X010999Y009500D03*
X010999Y007000D03*
X011668Y007000D03*
X011499Y005500D03*
X012168Y005500D03*
D17*
X013818Y007625D03*
X013818Y007875D03*
X013818Y008125D03*
X013818Y008375D03*
X013818Y008625D03*
X013818Y008875D03*
X013818Y009125D03*
X013818Y009375D03*
X015848Y009375D03*
X015848Y009125D03*
X015848Y008875D03*
X015848Y008625D03*
X015848Y008375D03*
X015848Y008125D03*
X015848Y007875D03*
X015848Y007625D03*
D18*
X011885Y015000D03*
X010782Y015000D03*
D19*
X010782Y014949D01*
X010333Y014500D01*
X010333Y011146D01*
X009318Y010130D01*
X009318Y009815D02*
X010148Y009815D01*
X010333Y010000D01*
X011333Y011000D01*
X011333Y011665D01*
X012833Y010665D02*
X012833Y009000D01*
X012958Y008875D01*
X013818Y008875D01*
X014458Y008875D01*
X015333Y008000D01*
X015723Y008000D01*
X015848Y007875D01*
X013818Y007625D02*
X013193Y007000D01*
X011668Y007000D01*
X011499Y005500D02*
X010333Y005500D01*
X010999Y009500D02*
X009318Y009500D01*
X014648Y013335D02*
X014833Y013150D01*
X014648Y013335D02*
X012833Y013335D01*
X012833Y014500D01*
X012333Y015000D01*
X011885Y015000D01*
D20*
X011333Y013500D03*
X016333Y012500D03*
X018333Y011500D03*
X015833Y010500D03*
X012333Y008500D03*
X010333Y010000D03*
X015833Y007000D03*
X017833Y006500D03*
X015333Y005500D03*
X018833Y008000D03*
X010333Y005500D03*
D21*
X006553Y007243D02*
X006553Y003720D01*
X027605Y003720D01*
X027605Y016150D01*
X006553Y016150D01*
X006553Y011757D01*
X006602Y011805D01*
X007702Y011805D01*
X007784Y011723D01*
X007784Y010820D01*
X007702Y010738D01*
X006602Y010738D01*
X006553Y010787D01*
X006553Y008213D01*
X006602Y008262D01*
X007702Y008262D01*
X007784Y008180D01*
X007784Y007277D01*
X007702Y007195D01*
X006602Y007195D01*
X006553Y007243D01*
X006553Y007174D02*
X010642Y007174D01*
X010642Y007255D02*
X010642Y006745D01*
X010724Y006663D01*
X011273Y006663D01*
X011333Y006723D01*
X011393Y006663D01*
X011943Y006663D01*
X012025Y006745D01*
X012025Y006810D01*
X013272Y006810D01*
X013868Y007406D01*
X014172Y007406D01*
X014254Y007488D01*
X014254Y007675D01*
X014375Y007675D01*
X014383Y007667D01*
X014383Y006167D01*
X014633Y005917D01*
X014750Y005800D01*
X015169Y005800D01*
X015141Y005788D01*
X015053Y005700D01*
X012525Y005700D01*
X012525Y005755D01*
X012443Y005837D01*
X011893Y005837D01*
X011833Y005777D01*
X011773Y005837D01*
X011224Y005837D01*
X011142Y005755D01*
X011142Y005690D01*
X010623Y005690D01*
X010622Y005693D01*
X010526Y005788D01*
X010401Y005840D01*
X010266Y005840D01*
X010141Y005788D01*
X010045Y005693D01*
X009993Y005568D01*
X009993Y005432D01*
X010045Y005307D01*
X010141Y005212D01*
X010266Y005160D01*
X010401Y005160D01*
X010526Y005212D01*
X010622Y005307D01*
X010623Y005310D01*
X011142Y005310D01*
X011142Y005245D01*
X011224Y005163D01*
X011773Y005163D01*
X011833Y005223D01*
X011893Y005163D01*
X012443Y005163D01*
X012525Y005245D01*
X012525Y005300D01*
X015053Y005300D01*
X015141Y005212D01*
X015266Y005160D01*
X015401Y005160D01*
X015526Y005212D01*
X015622Y005307D01*
X015673Y005432D01*
X015673Y005568D01*
X015622Y005693D01*
X015526Y005788D01*
X015498Y005800D01*
X019416Y005800D01*
X019916Y006300D01*
X020033Y006417D01*
X020033Y009907D01*
X020049Y009907D01*
X020131Y009989D01*
X020131Y010420D01*
X020051Y010500D01*
X020131Y010580D01*
X020131Y011011D01*
X020049Y011093D01*
X020033Y011093D01*
X020033Y012309D01*
X020088Y012309D01*
X020170Y012391D01*
X020170Y012940D01*
X020110Y013000D01*
X020170Y013060D01*
X020170Y013135D01*
X020751Y013135D01*
X021166Y013550D01*
X025500Y013550D01*
X025633Y013417D01*
X025633Y008583D01*
X025287Y008237D01*
X025266Y008289D01*
X025122Y008432D01*
X024959Y008500D01*
X025122Y008568D01*
X025266Y008711D01*
X025343Y008899D01*
X025343Y009101D01*
X025266Y009289D01*
X025122Y009432D01*
X024959Y009500D01*
X025122Y009568D01*
X025266Y009711D01*
X025343Y009899D01*
X025633Y009899D01*
X025633Y009781D02*
X025294Y009781D01*
X025343Y009899D02*
X025343Y010101D01*
X025266Y010289D01*
X025122Y010432D01*
X024959Y010500D01*
X025122Y010568D01*
X025266Y010711D01*
X025343Y010899D01*
X025343Y011101D01*
X025266Y011289D01*
X025122Y011432D01*
X024959Y011500D01*
X025122Y011568D01*
X025266Y011711D01*
X025343Y011899D01*
X025343Y012101D01*
X025266Y012289D01*
X025122Y012432D01*
X024959Y012500D01*
X025122Y012568D01*
X025266Y012711D01*
X025343Y012899D01*
X025343Y013101D01*
X025266Y013289D01*
X025122Y013432D01*
X024935Y013510D01*
X024732Y013510D01*
X024544Y013432D01*
X024401Y013289D01*
X024323Y013101D01*
X024323Y012899D01*
X024401Y012711D01*
X024544Y012568D01*
X024708Y012500D01*
X024544Y012432D01*
X024401Y012289D01*
X024323Y012101D01*
X024323Y011899D01*
X024401Y011711D01*
X024544Y011568D01*
X024708Y011500D01*
X024544Y011432D01*
X024401Y011289D01*
X024323Y011101D01*
X024323Y010899D01*
X024401Y010711D01*
X024544Y010568D01*
X024708Y010500D01*
X024544Y010432D01*
X024401Y010289D01*
X024323Y010101D01*
X024323Y009899D01*
X020033Y009899D01*
X020033Y009781D02*
X024372Y009781D01*
X024401Y009711D02*
X024544Y009568D01*
X024708Y009500D01*
X024544Y009432D01*
X024401Y009289D01*
X024323Y009101D01*
X024323Y008899D01*
X024401Y008711D01*
X024544Y008568D01*
X024708Y008500D01*
X024544Y008432D01*
X024401Y008289D01*
X024323Y008101D01*
X024323Y007899D01*
X024401Y007711D01*
X024544Y007568D01*
X024685Y007509D01*
X024630Y007491D01*
X024556Y007453D01*
X024488Y007404D01*
X024429Y007345D01*
X024380Y007278D01*
X024342Y007203D01*
X024316Y007124D01*
X024303Y007042D01*
X024303Y007040D01*
X024793Y007040D01*
X024793Y006960D01*
X024303Y006960D01*
X024303Y006958D01*
X024316Y006876D01*
X024342Y006797D01*
X024380Y006722D01*
X024429Y006655D01*
X024488Y006596D01*
X024556Y006547D01*
X024630Y006509D01*
X024709Y006483D01*
X024792Y006470D01*
X024793Y006470D01*
X024793Y006960D01*
X024873Y006960D01*
X024873Y006470D01*
X024875Y006470D01*
X024957Y006483D01*
X025037Y006509D01*
X025111Y006547D01*
X025179Y006596D01*
X025238Y006655D01*
X025287Y006722D01*
X025325Y006797D01*
X025350Y006876D01*
X025363Y006958D01*
X025363Y006960D01*
X024873Y006960D01*
X024873Y007040D01*
X025363Y007040D01*
X025363Y007042D01*
X025350Y007124D01*
X025325Y007203D01*
X025287Y007278D01*
X025238Y007345D01*
X025179Y007404D01*
X025111Y007453D01*
X025037Y007491D01*
X024981Y007509D01*
X025122Y007568D01*
X025266Y007711D01*
X025303Y007800D01*
X025416Y007800D01*
X025533Y007917D01*
X026033Y008417D01*
X026033Y013583D01*
X025916Y013700D01*
X025666Y013950D01*
X021000Y013950D01*
X020883Y013833D01*
X020585Y013535D01*
X020170Y013535D01*
X020170Y013609D01*
X020088Y013691D01*
X019578Y013691D01*
X018088Y013691D01*
X017578Y013691D01*
X013088Y013691D01*
X013023Y013691D01*
X013023Y014579D01*
X012912Y014690D01*
X012412Y015190D01*
X012221Y015190D01*
X012221Y015412D01*
X012139Y015494D01*
X011630Y015494D01*
X011548Y015412D01*
X011548Y014588D01*
X011630Y014506D01*
X012139Y014506D01*
X012221Y014588D01*
X012221Y014810D01*
X012255Y014810D01*
X012643Y014421D01*
X012643Y013691D01*
X012578Y013691D01*
X010523Y013691D01*
X010523Y013573D02*
X012496Y013573D01*
X012496Y013609D02*
X012496Y013060D01*
X012544Y013013D01*
X012538Y013010D01*
X012508Y012980D01*
X010523Y012980D01*
X010523Y012862D02*
X012476Y012862D01*
X012476Y012903D02*
X012476Y012704D01*
X012795Y012704D01*
X012795Y012627D01*
X012872Y012627D01*
X012872Y012704D01*
X013190Y012704D01*
X013190Y012903D01*
X013179Y012944D01*
X013158Y012980D01*
X013128Y013010D01*
X013123Y013013D01*
X013170Y013060D01*
X013170Y013145D01*
X014378Y013145D01*
X014378Y012718D01*
X014460Y012636D01*
X015206Y012636D01*
X015288Y012718D01*
X015288Y012800D01*
X016169Y012800D01*
X016141Y012788D01*
X016045Y012693D01*
X015993Y012568D01*
X015993Y012432D01*
X016045Y012307D01*
X016133Y012219D01*
X016133Y011583D01*
X015750Y011200D01*
X014750Y011200D01*
X014633Y011083D01*
X013618Y010068D01*
X013618Y009594D01*
X013465Y009594D01*
X013383Y009512D01*
X013383Y009065D01*
X013037Y009065D01*
X013023Y009079D01*
X013023Y010309D01*
X013088Y010309D01*
X013170Y010391D01*
X013170Y010940D01*
X013123Y010987D01*
X013128Y010990D01*
X013158Y011020D01*
X013179Y011056D01*
X013190Y011097D01*
X013190Y011296D01*
X012872Y011296D01*
X012872Y011373D01*
X013190Y011373D01*
X013190Y011572D01*
X013179Y011613D01*
X013158Y011649D01*
X013128Y011679D01*
X013092Y011700D01*
X013051Y011711D01*
X012872Y011711D01*
X012872Y011373D01*
X012795Y011373D01*
X012795Y011296D01*
X012476Y011296D01*
X012476Y011097D01*
X012487Y011056D01*
X012508Y011020D01*
X012538Y010990D01*
X012544Y010987D01*
X012496Y010940D01*
X012496Y010391D01*
X012578Y010309D01*
X012643Y010309D01*
X012643Y008921D01*
X012740Y008825D01*
X012437Y008825D01*
X012401Y008840D01*
X012266Y008840D01*
X012141Y008788D01*
X012045Y008693D01*
X011993Y008568D01*
X011993Y008432D01*
X012045Y008307D01*
X012141Y008212D01*
X012266Y008160D01*
X012401Y008160D01*
X012526Y008212D01*
X012622Y008307D01*
X012670Y008425D01*
X013363Y008425D01*
X013363Y008375D01*
X013818Y008375D01*
X013363Y008375D01*
X013363Y008275D01*
X013374Y008235D01*
X013383Y008219D01*
X013383Y007488D01*
X013398Y007473D01*
X013115Y007190D01*
X012025Y007190D01*
X012025Y007255D01*
X011943Y007337D01*
X011393Y007337D01*
X011333Y007277D01*
X011273Y007337D01*
X011199Y007337D01*
X011199Y009163D01*
X011273Y009163D01*
X011320Y009210D01*
X011323Y009205D01*
X011353Y009175D01*
X011390Y009154D01*
X011430Y009143D01*
X011630Y009143D01*
X011630Y009462D01*
X011706Y009462D01*
X011706Y009143D01*
X011906Y009143D01*
X011946Y009154D01*
X011983Y009175D01*
X012013Y009205D01*
X012034Y009241D01*
X012045Y009282D01*
X012045Y009462D01*
X011706Y009462D01*
X011706Y009538D01*
X012045Y009538D01*
X012045Y009718D01*
X012034Y009759D01*
X012013Y009795D01*
X011983Y009825D01*
X011946Y009846D01*
X011906Y009857D01*
X011706Y009857D01*
X011706Y009538D01*
X011630Y009538D01*
X011630Y009857D01*
X011430Y009857D01*
X011390Y009846D01*
X011353Y009825D01*
X011323Y009795D01*
X011320Y009790D01*
X011273Y009837D01*
X010724Y009837D01*
X010642Y009755D01*
X010642Y009690D01*
X010473Y009690D01*
X010526Y009712D01*
X010622Y009807D01*
X010673Y009932D01*
X010673Y010068D01*
X010672Y010070D01*
X011523Y010921D01*
X011523Y011309D01*
X011588Y011309D01*
X011670Y011391D01*
X011670Y011940D01*
X011623Y011987D01*
X011628Y011990D01*
X011658Y012020D01*
X011679Y012056D01*
X011690Y012097D01*
X011690Y012296D01*
X011372Y012296D01*
X011372Y012373D01*
X011690Y012373D01*
X011690Y012572D01*
X011679Y012613D01*
X011658Y012649D01*
X011628Y012679D01*
X011592Y012700D01*
X011551Y012711D01*
X011372Y012711D01*
X011372Y012373D01*
X011295Y012373D01*
X011295Y012296D01*
X010976Y012296D01*
X010976Y012097D01*
X010987Y012056D01*
X011008Y012020D01*
X011038Y011990D01*
X011044Y011987D01*
X010996Y011940D01*
X010996Y011391D01*
X011078Y011309D01*
X011143Y011309D01*
X011143Y011079D01*
X010404Y010339D01*
X010401Y010340D01*
X010266Y010340D01*
X010141Y010288D01*
X010045Y010193D01*
X009993Y010068D01*
X009993Y010005D01*
X009950Y010005D01*
X009950Y010286D01*
X009868Y010368D01*
X009825Y010368D01*
X010523Y011067D01*
X010523Y014421D01*
X010608Y014506D01*
X011037Y014506D01*
X011119Y014588D01*
X011119Y015412D01*
X011037Y015494D01*
X010527Y015494D01*
X010445Y015412D01*
X010445Y014881D01*
X010255Y014690D01*
X010143Y014579D01*
X010143Y011224D01*
X009950Y011031D01*
X009950Y011723D01*
X009868Y011805D01*
X008767Y011805D01*
X008685Y011723D01*
X008685Y010820D01*
X008767Y010738D01*
X009657Y010738D01*
X009287Y010368D01*
X008767Y010368D01*
X008685Y010286D01*
X008685Y009974D01*
X008687Y009972D01*
X008685Y009971D01*
X008685Y009659D01*
X008687Y009657D01*
X008685Y009656D01*
X008685Y009344D01*
X008687Y009343D01*
X008685Y009341D01*
X008685Y009046D01*
X008676Y009030D01*
X008665Y008990D01*
X008665Y008870D01*
X008665Y008751D01*
X008676Y008710D01*
X008697Y008673D01*
X008727Y008644D01*
X008764Y008623D01*
X008804Y008612D01*
X009318Y008612D01*
X009831Y008612D01*
X009871Y008623D01*
X009908Y008644D01*
X009938Y008673D01*
X009959Y008710D01*
X009970Y008751D01*
X009970Y008870D01*
X009318Y008870D01*
X009318Y008870D01*
X009970Y008870D01*
X009970Y008990D01*
X009959Y009030D01*
X009950Y009046D01*
X009950Y009310D01*
X010642Y009310D01*
X010642Y009245D01*
X010724Y009163D01*
X010799Y009163D01*
X010799Y007337D01*
X010724Y007337D01*
X010642Y007255D01*
X010679Y007292D02*
X009950Y007292D01*
X009950Y007277D02*
X009868Y007195D01*
X008767Y007195D01*
X008685Y007277D01*
X008685Y008180D01*
X008767Y008262D01*
X009868Y008262D01*
X009950Y008180D01*
X009950Y007277D01*
X009950Y007411D02*
X010799Y007411D01*
X010799Y007529D02*
X009950Y007529D01*
X009950Y007648D02*
X010799Y007648D01*
X010799Y007766D02*
X009950Y007766D01*
X009950Y007885D02*
X010799Y007885D01*
X010799Y008003D02*
X009950Y008003D01*
X009950Y008122D02*
X010799Y008122D01*
X010799Y008240D02*
X009890Y008240D01*
X009318Y008612D02*
X009318Y008870D01*
X009318Y008870D01*
X009318Y008612D01*
X009318Y008714D02*
X009318Y008714D01*
X009318Y008833D02*
X009318Y008833D01*
X009318Y008870D02*
X008665Y008870D01*
X009318Y008870D01*
X009318Y008870D01*
X009970Y008833D02*
X010799Y008833D01*
X010799Y008951D02*
X009970Y008951D01*
X009950Y009070D02*
X010799Y009070D01*
X010699Y009188D02*
X009950Y009188D01*
X009950Y009307D02*
X010642Y009307D01*
X010999Y009500D02*
X010999Y007000D01*
X010642Y007055D02*
X006553Y007055D01*
X006553Y006937D02*
X010642Y006937D01*
X010642Y006818D02*
X006553Y006818D01*
X006553Y006700D02*
X010688Y006700D01*
X011310Y006700D02*
X011357Y006700D01*
X011979Y006700D02*
X014383Y006700D01*
X014383Y006818D02*
X013280Y006818D01*
X013399Y006937D02*
X014383Y006937D01*
X014383Y007055D02*
X013517Y007055D01*
X013636Y007174D02*
X014383Y007174D01*
X014383Y007292D02*
X013754Y007292D01*
X013335Y007411D02*
X011199Y007411D01*
X011199Y007529D02*
X013383Y007529D01*
X013383Y007648D02*
X011199Y007648D01*
X011199Y007766D02*
X013383Y007766D01*
X013383Y007885D02*
X011199Y007885D01*
X011199Y008003D02*
X013383Y008003D01*
X013383Y008122D02*
X011199Y008122D01*
X011199Y008240D02*
X012112Y008240D01*
X012024Y008359D02*
X011199Y008359D01*
X011199Y008477D02*
X011993Y008477D01*
X012005Y008596D02*
X011199Y008596D01*
X011199Y008714D02*
X012067Y008714D01*
X012248Y008833D02*
X011199Y008833D01*
X011199Y008951D02*
X012643Y008951D01*
X012643Y009070D02*
X011199Y009070D01*
X011298Y009188D02*
X011340Y009188D01*
X011630Y009188D02*
X011706Y009188D01*
X011706Y009307D02*
X011630Y009307D01*
X011630Y009425D02*
X011706Y009425D01*
X011706Y009544D02*
X011630Y009544D01*
X011630Y009662D02*
X011706Y009662D01*
X011706Y009781D02*
X011630Y009781D01*
X012021Y009781D02*
X012643Y009781D01*
X012643Y009899D02*
X010660Y009899D01*
X010668Y009781D02*
X010595Y009781D01*
X010673Y010018D02*
X012643Y010018D01*
X012643Y010136D02*
X010738Y010136D01*
X010857Y010255D02*
X012643Y010255D01*
X012514Y010373D02*
X010975Y010373D01*
X011094Y010492D02*
X012496Y010492D01*
X012496Y010610D02*
X011212Y010610D01*
X011331Y010729D02*
X012496Y010729D01*
X012496Y010847D02*
X011449Y010847D01*
X011523Y010966D02*
X012522Y010966D01*
X012480Y011084D02*
X011523Y011084D01*
X011523Y011203D02*
X012476Y011203D01*
X012476Y011373D02*
X012795Y011373D01*
X012795Y011711D01*
X012615Y011711D01*
X012575Y011700D01*
X012538Y011679D01*
X012508Y011649D01*
X012487Y011613D01*
X012476Y011572D01*
X012476Y011373D01*
X012476Y011440D02*
X011670Y011440D01*
X011670Y011558D02*
X012476Y011558D01*
X012536Y011677D02*
X011670Y011677D01*
X011670Y011795D02*
X014773Y011795D01*
X014773Y011790D02*
X014358Y011790D01*
X014358Y011455D01*
X014369Y011415D01*
X014390Y011378D01*
X014420Y011348D01*
X014457Y011327D01*
X014497Y011316D01*
X014773Y011316D01*
X014773Y011790D01*
X014893Y011790D01*
X014893Y011316D01*
X015169Y011316D01*
X015210Y011327D01*
X015247Y011348D01*
X015276Y011378D01*
X015297Y011415D01*
X015308Y011455D01*
X015308Y011790D01*
X014893Y011790D01*
X014893Y011910D01*
X014773Y011910D01*
X014773Y011790D01*
X014773Y011677D02*
X014893Y011677D01*
X014893Y011795D02*
X016133Y011795D01*
X016133Y011677D02*
X015308Y011677D01*
X015308Y011558D02*
X016109Y011558D01*
X015990Y011440D02*
X015304Y011440D01*
X015187Y011321D02*
X015872Y011321D01*
X015753Y011203D02*
X013190Y011203D01*
X013187Y011084D02*
X014635Y011084D01*
X014516Y010966D02*
X013145Y010966D01*
X013170Y010847D02*
X014398Y010847D01*
X014279Y010729D02*
X013170Y010729D01*
X013170Y010610D02*
X014161Y010610D01*
X014042Y010492D02*
X013170Y010492D01*
X013152Y010373D02*
X013924Y010373D01*
X013805Y010255D02*
X013023Y010255D01*
X013023Y010136D02*
X013687Y010136D01*
X013618Y010018D02*
X013023Y010018D01*
X013023Y009899D02*
X013618Y009899D01*
X013618Y009781D02*
X013023Y009781D01*
X013023Y009662D02*
X013618Y009662D01*
X013415Y009544D02*
X013023Y009544D01*
X013023Y009425D02*
X013383Y009425D01*
X013383Y009307D02*
X013023Y009307D01*
X013023Y009188D02*
X013383Y009188D01*
X013383Y009070D02*
X013033Y009070D01*
X012732Y008833D02*
X012419Y008833D01*
X012458Y008625D02*
X012333Y008500D01*
X012458Y008625D02*
X013818Y008625D01*
X013818Y008375D02*
X013818Y008375D01*
X014274Y008375D01*
X014274Y008325D01*
X014740Y008325D01*
X014380Y008685D01*
X014254Y008685D01*
X014254Y008531D01*
X014263Y008515D01*
X014274Y008475D01*
X014274Y008375D01*
X013818Y008375D01*
X013818Y008375D01*
X013363Y008359D02*
X012643Y008359D01*
X012554Y008240D02*
X013372Y008240D01*
X013818Y008125D02*
X014708Y008125D01*
X014833Y008000D01*
X014833Y006500D01*
X017833Y006500D01*
X019333Y006000D02*
X019833Y006500D01*
X019833Y010205D01*
X020131Y010255D02*
X024387Y010255D01*
X024338Y010136D02*
X020131Y010136D01*
X020131Y010018D02*
X024323Y010018D01*
X024323Y009899D02*
X024401Y009711D01*
X024450Y009662D02*
X020033Y009662D01*
X020033Y009544D02*
X024603Y009544D01*
X024537Y009425D02*
X020033Y009425D01*
X020033Y009307D02*
X024419Y009307D01*
X024359Y009188D02*
X020033Y009188D01*
X020033Y009070D02*
X024323Y009070D01*
X024323Y008951D02*
X020033Y008951D01*
X020033Y008833D02*
X024351Y008833D01*
X024400Y008714D02*
X020033Y008714D01*
X020033Y008596D02*
X024517Y008596D01*
X024652Y008477D02*
X020033Y008477D01*
X020033Y008359D02*
X024471Y008359D01*
X024381Y008240D02*
X020033Y008240D01*
X020033Y008122D02*
X024332Y008122D01*
X024323Y008003D02*
X020033Y008003D01*
X020033Y007885D02*
X024329Y007885D01*
X024378Y007766D02*
X020033Y007766D01*
X020033Y007648D02*
X024465Y007648D01*
X024638Y007529D02*
X020033Y007529D01*
X020033Y007411D02*
X024497Y007411D01*
X024390Y007292D02*
X020033Y007292D01*
X020033Y007174D02*
X024332Y007174D01*
X024305Y007055D02*
X020033Y007055D01*
X020033Y006937D02*
X024307Y006937D01*
X024335Y006818D02*
X020033Y006818D01*
X020033Y006700D02*
X024397Y006700D01*
X024508Y006581D02*
X020033Y006581D01*
X020033Y006463D02*
X027605Y006463D01*
X027605Y006581D02*
X025158Y006581D01*
X025270Y006700D02*
X027605Y006700D01*
X027605Y006818D02*
X025331Y006818D01*
X025360Y006937D02*
X027605Y006937D01*
X027605Y007055D02*
X025361Y007055D01*
X025334Y007174D02*
X027605Y007174D01*
X027605Y007292D02*
X025276Y007292D01*
X025170Y007411D02*
X027605Y007411D01*
X027605Y007529D02*
X025029Y007529D01*
X025202Y007648D02*
X027605Y007648D01*
X027605Y007766D02*
X025288Y007766D01*
X025501Y007885D02*
X027605Y007885D01*
X027605Y008003D02*
X025619Y008003D01*
X025738Y008122D02*
X027605Y008122D01*
X027605Y008240D02*
X025856Y008240D01*
X025975Y008359D02*
X027605Y008359D01*
X027605Y008477D02*
X026033Y008477D01*
X026033Y008596D02*
X027605Y008596D01*
X027605Y008714D02*
X026033Y008714D01*
X026033Y008833D02*
X027605Y008833D01*
X027605Y008951D02*
X026033Y008951D01*
X026033Y009070D02*
X027605Y009070D01*
X027605Y009188D02*
X026033Y009188D01*
X026033Y009307D02*
X027605Y009307D01*
X027605Y009425D02*
X026033Y009425D01*
X026033Y009544D02*
X027605Y009544D01*
X027605Y009662D02*
X026033Y009662D01*
X026033Y009781D02*
X027605Y009781D01*
X027605Y009899D02*
X026033Y009899D01*
X026033Y010018D02*
X027605Y010018D01*
X027605Y010136D02*
X026033Y010136D01*
X026033Y010255D02*
X027605Y010255D01*
X027605Y010373D02*
X026033Y010373D01*
X026033Y010492D02*
X027605Y010492D01*
X027605Y010610D02*
X026033Y010610D01*
X026033Y010729D02*
X027605Y010729D01*
X027605Y010847D02*
X026033Y010847D01*
X026033Y010966D02*
X027605Y010966D01*
X027605Y011084D02*
X026033Y011084D01*
X026033Y011203D02*
X027605Y011203D01*
X027605Y011321D02*
X026033Y011321D01*
X026033Y011440D02*
X027605Y011440D01*
X027605Y011558D02*
X026033Y011558D01*
X026033Y011677D02*
X027605Y011677D01*
X027605Y011795D02*
X026033Y011795D01*
X026033Y011914D02*
X027605Y011914D01*
X027605Y012032D02*
X026033Y012032D01*
X026033Y012151D02*
X027605Y012151D01*
X027605Y012269D02*
X026033Y012269D01*
X026033Y012388D02*
X027605Y012388D01*
X027605Y012506D02*
X026033Y012506D01*
X026033Y012625D02*
X027605Y012625D01*
X027605Y012743D02*
X026033Y012743D01*
X026033Y012862D02*
X027605Y012862D01*
X027605Y012980D02*
X026033Y012980D01*
X026033Y013099D02*
X027605Y013099D01*
X027605Y013217D02*
X026033Y013217D01*
X026033Y013336D02*
X027605Y013336D01*
X027605Y013454D02*
X026033Y013454D01*
X026033Y013573D02*
X027605Y013573D01*
X027605Y013691D02*
X025925Y013691D01*
X025807Y013810D02*
X027605Y013810D01*
X027605Y013928D02*
X025688Y013928D01*
X025583Y013750D02*
X025833Y013500D01*
X025833Y008500D01*
X025333Y008000D01*
X024833Y008000D01*
X025286Y008240D02*
X025291Y008240D01*
X025196Y008359D02*
X025409Y008359D01*
X025528Y008477D02*
X025014Y008477D01*
X025150Y008596D02*
X025633Y008596D01*
X025633Y008714D02*
X025267Y008714D01*
X025316Y008833D02*
X025633Y008833D01*
X025633Y008951D02*
X025343Y008951D01*
X025343Y009070D02*
X025633Y009070D01*
X025633Y009188D02*
X025307Y009188D01*
X025248Y009307D02*
X025633Y009307D01*
X025633Y009425D02*
X025130Y009425D01*
X025064Y009544D02*
X025633Y009544D01*
X025633Y009662D02*
X025217Y009662D01*
X025343Y010018D02*
X025633Y010018D01*
X025633Y010136D02*
X025329Y010136D01*
X025280Y010255D02*
X025633Y010255D01*
X025633Y010373D02*
X025182Y010373D01*
X024979Y010492D02*
X025633Y010492D01*
X025633Y010610D02*
X025165Y010610D01*
X025273Y010729D02*
X025633Y010729D01*
X025633Y010847D02*
X025322Y010847D01*
X025343Y010966D02*
X025633Y010966D01*
X025633Y011084D02*
X025343Y011084D01*
X025301Y011203D02*
X025633Y011203D01*
X025633Y011321D02*
X025234Y011321D01*
X025105Y011440D02*
X025633Y011440D01*
X025633Y011558D02*
X025099Y011558D01*
X025231Y011677D02*
X025633Y011677D01*
X025633Y011795D02*
X025300Y011795D01*
X025343Y011914D02*
X025633Y011914D01*
X025633Y012032D02*
X025343Y012032D01*
X025323Y012151D02*
X025633Y012151D01*
X025633Y012269D02*
X025274Y012269D01*
X025167Y012388D02*
X025633Y012388D01*
X025633Y012506D02*
X024973Y012506D01*
X025179Y012625D02*
X025633Y012625D01*
X025633Y012743D02*
X025279Y012743D01*
X025328Y012862D02*
X025633Y012862D01*
X025633Y012980D02*
X025343Y012980D01*
X025343Y013099D02*
X025633Y013099D01*
X025633Y013217D02*
X025295Y013217D01*
X025219Y013336D02*
X025633Y013336D01*
X025596Y013454D02*
X025070Y013454D01*
X024597Y013454D02*
X021070Y013454D01*
X020952Y013336D02*
X024448Y013336D01*
X024371Y013217D02*
X020833Y013217D01*
X020668Y013335D02*
X021083Y013750D01*
X025583Y013750D01*
X025863Y014296D02*
X025863Y014296D01*
X026168Y014170D01*
X026375Y014170D01*
X026498Y014170D01*
X026498Y014170D01*
X026803Y014296D01*
X026803Y014296D01*
X027037Y014530D01*
X027163Y014835D01*
X027163Y015165D01*
X027037Y015470D01*
X027037Y015470D01*
X026803Y015704D01*
X026498Y015830D01*
X026168Y015830D01*
X025863Y015704D01*
X025630Y015470D01*
X025503Y015165D01*
X025503Y014835D01*
X025630Y014530D01*
X025863Y014296D01*
X025894Y014284D02*
X013023Y014284D01*
X013023Y014402D02*
X025758Y014402D01*
X025639Y014521D02*
X013023Y014521D01*
X012963Y014639D02*
X025584Y014639D01*
X025630Y014530D02*
X025630Y014530D01*
X025535Y014758D02*
X012845Y014758D01*
X012726Y014876D02*
X025503Y014876D01*
X025503Y014995D02*
X012608Y014995D01*
X012489Y015113D02*
X025503Y015113D01*
X025531Y015232D02*
X012221Y015232D01*
X012221Y015350D02*
X025580Y015350D01*
X025629Y015469D02*
X012165Y015469D01*
X011604Y015469D02*
X011063Y015469D01*
X011119Y015350D02*
X011548Y015350D01*
X011548Y015232D02*
X011119Y015232D01*
X011119Y015113D02*
X011548Y015113D01*
X011548Y014995D02*
X011119Y014995D01*
X011119Y014876D02*
X011548Y014876D01*
X011548Y014758D02*
X011119Y014758D01*
X011119Y014639D02*
X011548Y014639D01*
X011615Y014521D02*
X011052Y014521D01*
X010523Y014402D02*
X012643Y014402D01*
X012643Y014284D02*
X010523Y014284D01*
X010523Y014165D02*
X012643Y014165D01*
X012643Y014047D02*
X010523Y014047D01*
X010523Y013928D02*
X012643Y013928D01*
X012643Y013810D02*
X010523Y013810D01*
X010523Y013454D02*
X012496Y013454D01*
X012496Y013336D02*
X010523Y013336D01*
X010523Y013217D02*
X012496Y013217D01*
X012496Y013099D02*
X010523Y013099D01*
X010523Y012743D02*
X012476Y012743D01*
X012476Y012627D02*
X012476Y012428D01*
X012487Y012387D01*
X012508Y012351D01*
X012538Y012321D01*
X012575Y012300D01*
X012615Y012289D01*
X012795Y012289D01*
X012795Y012627D01*
X012476Y012627D01*
X012476Y012625D02*
X011673Y012625D01*
X011690Y012506D02*
X012476Y012506D01*
X012487Y012388D02*
X011690Y012388D01*
X011690Y012269D02*
X014365Y012269D01*
X014369Y012286D02*
X014358Y012245D01*
X014358Y011910D01*
X014773Y011910D01*
X014773Y012384D01*
X014497Y012384D01*
X014457Y012374D01*
X014420Y012352D01*
X014390Y012323D01*
X014369Y012286D01*
X014358Y012151D02*
X011690Y012151D01*
X011665Y012032D02*
X014358Y012032D01*
X014358Y011914D02*
X011670Y011914D01*
X010996Y011914D02*
X010523Y011914D01*
X010523Y012032D02*
X011001Y012032D01*
X010976Y012151D02*
X010523Y012151D01*
X010523Y012269D02*
X010976Y012269D01*
X010976Y012373D02*
X011295Y012373D01*
X011295Y012711D01*
X011115Y012711D01*
X011075Y012700D01*
X011038Y012679D01*
X011008Y012649D01*
X010987Y012613D01*
X010976Y012572D01*
X010976Y012373D01*
X010976Y012388D02*
X010523Y012388D01*
X010523Y012506D02*
X010976Y012506D01*
X010994Y012625D02*
X010523Y012625D01*
X010143Y012625D02*
X006553Y012625D01*
X006553Y012743D02*
X010143Y012743D01*
X010143Y012862D02*
X006553Y012862D01*
X006553Y012980D02*
X010143Y012980D01*
X010143Y013099D02*
X006553Y013099D01*
X006553Y013217D02*
X010143Y013217D01*
X010143Y013336D02*
X006553Y013336D01*
X006553Y013454D02*
X010143Y013454D01*
X010143Y013573D02*
X006553Y013573D01*
X006553Y013691D02*
X010143Y013691D01*
X010143Y013810D02*
X006553Y013810D01*
X006553Y013928D02*
X010143Y013928D01*
X010143Y014047D02*
X006553Y014047D01*
X006553Y014165D02*
X010143Y014165D01*
X010143Y014284D02*
X008272Y014284D01*
X008303Y014296D02*
X008537Y014530D01*
X008663Y014835D01*
X008663Y015165D01*
X008537Y015470D01*
X008537Y015470D01*
X008303Y015704D01*
X007998Y015830D01*
X007668Y015830D01*
X007363Y015704D01*
X007130Y015470D01*
X007003Y015165D01*
X007003Y014835D01*
X007130Y014530D01*
X007363Y014296D01*
X007668Y014170D01*
X007792Y014170D01*
X007998Y014170D01*
X008303Y014296D01*
X008303Y014296D01*
X008409Y014402D02*
X010143Y014402D01*
X010143Y014521D02*
X008528Y014521D01*
X008537Y014530D02*
X008537Y014530D01*
X008582Y014639D02*
X010204Y014639D01*
X010322Y014758D02*
X008631Y014758D01*
X008663Y014876D02*
X010441Y014876D01*
X010445Y014995D02*
X008663Y014995D01*
X008663Y015113D02*
X010445Y015113D01*
X010445Y015232D02*
X008636Y015232D01*
X008587Y015350D02*
X010445Y015350D01*
X010502Y015469D02*
X008538Y015469D01*
X008420Y015587D02*
X025747Y015587D01*
X025863Y015704D02*
X025863Y015704D01*
X025868Y015706D02*
X008299Y015706D01*
X008303Y015704D02*
X008303Y015704D01*
X008013Y015824D02*
X026154Y015824D01*
X026513Y015824D02*
X027605Y015824D01*
X027605Y015706D02*
X026799Y015706D01*
X026803Y015704D02*
X026803Y015704D01*
X026920Y015587D02*
X027605Y015587D01*
X027605Y015469D02*
X027038Y015469D01*
X027087Y015350D02*
X027605Y015350D01*
X027605Y015232D02*
X027136Y015232D01*
X027163Y015113D02*
X027605Y015113D01*
X027605Y014995D02*
X027163Y014995D01*
X027163Y014876D02*
X027605Y014876D01*
X027605Y014758D02*
X027131Y014758D01*
X027082Y014639D02*
X027605Y014639D01*
X027605Y014521D02*
X027028Y014521D01*
X027037Y014530D02*
X027037Y014530D01*
X026909Y014402D02*
X027605Y014402D01*
X027605Y014284D02*
X026772Y014284D01*
X027605Y014165D02*
X013023Y014165D01*
X013023Y014047D02*
X027605Y014047D01*
X025630Y015470D02*
X025630Y015470D01*
X027605Y015943D02*
X006553Y015943D01*
X006553Y016061D02*
X027605Y016061D01*
X024323Y013099D02*
X020170Y013099D01*
X020130Y012980D02*
X024323Y012980D01*
X024339Y012862D02*
X020170Y012862D01*
X020170Y012743D02*
X024388Y012743D01*
X024488Y012625D02*
X020170Y012625D01*
X020170Y012506D02*
X024693Y012506D01*
X024500Y012388D02*
X020167Y012388D01*
X020033Y012269D02*
X024393Y012269D01*
X024344Y012151D02*
X020033Y012151D01*
X020033Y012032D02*
X024323Y012032D01*
X024323Y011914D02*
X020033Y011914D01*
X020033Y011795D02*
X024366Y011795D01*
X024436Y011677D02*
X020033Y011677D01*
X020033Y011558D02*
X024568Y011558D01*
X024562Y011440D02*
X020033Y011440D01*
X020033Y011321D02*
X024433Y011321D01*
X024365Y011203D02*
X020033Y011203D01*
X020058Y011084D02*
X024323Y011084D01*
X024323Y010966D02*
X020131Y010966D01*
X020131Y010847D02*
X024345Y010847D01*
X024394Y010729D02*
X020131Y010729D01*
X020131Y010610D02*
X024502Y010610D01*
X024687Y010492D02*
X020059Y010492D01*
X020131Y010373D02*
X024485Y010373D01*
X019833Y010795D02*
X019833Y012665D01*
X019833Y013335D02*
X018833Y013335D01*
X018833Y009000D01*
X018208Y008375D01*
X015848Y008375D01*
X015848Y008625D02*
X015393Y008625D01*
X015848Y008625D01*
X015848Y008625D01*
X016304Y008625D01*
X016304Y008675D01*
X017791Y008675D01*
X017916Y008800D01*
X018033Y008917D01*
X018033Y009907D01*
X018049Y009907D01*
X018131Y009989D01*
X018131Y010420D01*
X018051Y010500D01*
X018131Y010580D01*
X018131Y011011D01*
X018049Y011093D01*
X018033Y011093D01*
X018033Y012309D01*
X018088Y012309D01*
X018170Y012391D01*
X018170Y012940D01*
X018110Y013000D01*
X018170Y013060D01*
X018170Y013135D01*
X018633Y013135D01*
X018633Y009083D01*
X018125Y008575D01*
X016304Y008575D01*
X016304Y008625D01*
X015848Y008625D01*
X015848Y008625D01*
X015393Y008625D02*
X015393Y008525D01*
X015404Y008485D01*
X015413Y008469D01*
X015413Y008190D01*
X015412Y008190D01*
X014677Y008925D01*
X015041Y008925D01*
X015158Y009042D01*
X015413Y009297D01*
X015413Y009238D01*
X015413Y008781D01*
X015404Y008765D01*
X015393Y008725D01*
X015393Y008625D01*
X015393Y008596D02*
X015007Y008596D01*
X014888Y008714D02*
X015393Y008714D01*
X015413Y008833D02*
X014770Y008833D01*
X015067Y008951D02*
X015413Y008951D01*
X015413Y009070D02*
X015186Y009070D01*
X015158Y009042D02*
X015158Y009042D01*
X015304Y009188D02*
X015413Y009188D01*
X015333Y009500D02*
X014958Y009125D01*
X013818Y009125D01*
X013818Y009375D02*
X013818Y009985D01*
X014833Y011000D01*
X015833Y011000D01*
X016333Y011500D01*
X016333Y012500D01*
X015993Y012506D02*
X013190Y012506D01*
X013190Y012428D02*
X013190Y012627D01*
X012872Y012627D01*
X012872Y012289D01*
X013051Y012289D01*
X013092Y012300D01*
X013128Y012321D01*
X013158Y012351D01*
X013179Y012387D01*
X013190Y012428D01*
X013179Y012388D02*
X016012Y012388D01*
X016083Y012269D02*
X015302Y012269D01*
X015297Y012286D02*
X015276Y012323D01*
X015247Y012352D01*
X015210Y012374D01*
X015169Y012384D01*
X014893Y012384D01*
X014893Y011910D01*
X015308Y011910D01*
X015308Y012245D01*
X015297Y012286D01*
X015308Y012151D02*
X016133Y012151D01*
X016133Y012032D02*
X015308Y012032D01*
X015308Y011914D02*
X016133Y011914D01*
X016017Y012625D02*
X013190Y012625D01*
X013190Y012743D02*
X014378Y012743D01*
X014378Y012862D02*
X013190Y012862D01*
X013158Y012980D02*
X014378Y012980D01*
X014378Y013099D02*
X013170Y013099D01*
X012508Y012980D02*
X012487Y012944D01*
X012476Y012903D01*
X012795Y012625D02*
X012872Y012625D01*
X012872Y012506D02*
X012795Y012506D01*
X012795Y012388D02*
X012872Y012388D01*
X012872Y011677D02*
X012795Y011677D01*
X012795Y011558D02*
X012872Y011558D01*
X012872Y011440D02*
X012795Y011440D01*
X012795Y011321D02*
X011600Y011321D01*
X011143Y011203D02*
X010523Y011203D01*
X010523Y011321D02*
X011066Y011321D01*
X010996Y011440D02*
X010523Y011440D01*
X010523Y011558D02*
X010996Y011558D01*
X010996Y011677D02*
X010523Y011677D01*
X010523Y011795D02*
X010996Y011795D01*
X010143Y011795D02*
X009878Y011795D01*
X009950Y011677D02*
X010143Y011677D01*
X010143Y011558D02*
X009950Y011558D01*
X009950Y011440D02*
X010143Y011440D01*
X010143Y011321D02*
X009950Y011321D01*
X009950Y011203D02*
X010121Y011203D01*
X010003Y011084D02*
X009950Y011084D01*
X010303Y010847D02*
X010912Y010847D01*
X011030Y010966D02*
X010422Y010966D01*
X010523Y011084D02*
X011143Y011084D01*
X010793Y010729D02*
X010185Y010729D01*
X010066Y010610D02*
X010675Y010610D01*
X010556Y010492D02*
X009948Y010492D01*
X009829Y010373D02*
X010438Y010373D01*
X010107Y010255D02*
X009950Y010255D01*
X009950Y010136D02*
X010022Y010136D01*
X009993Y010018D02*
X009950Y010018D01*
X009410Y010492D02*
X008646Y010492D01*
X008670Y010433D02*
X008619Y010557D01*
X008524Y010652D01*
X008400Y010703D01*
X008266Y010703D01*
X008142Y010652D01*
X008047Y010557D01*
X007996Y010433D01*
X007996Y010299D01*
X008047Y010175D01*
X008142Y010080D01*
X008266Y010029D01*
X008400Y010029D01*
X008524Y010080D01*
X008619Y010175D01*
X008670Y010299D01*
X008670Y010433D01*
X008670Y010373D02*
X009292Y010373D01*
X009529Y010610D02*
X008566Y010610D01*
X008685Y010847D02*
X007784Y010847D01*
X007784Y010966D02*
X008685Y010966D01*
X008685Y011084D02*
X007784Y011084D01*
X007784Y011203D02*
X008685Y011203D01*
X008685Y011321D02*
X007784Y011321D01*
X007784Y011440D02*
X008685Y011440D01*
X008685Y011558D02*
X007784Y011558D01*
X007784Y011677D02*
X008685Y011677D01*
X008757Y011795D02*
X007713Y011795D01*
X006592Y011795D02*
X006553Y011795D01*
X006553Y011914D02*
X010143Y011914D01*
X010143Y012032D02*
X006553Y012032D01*
X006553Y012151D02*
X010143Y012151D01*
X010143Y012269D02*
X006553Y012269D01*
X006553Y012388D02*
X010143Y012388D01*
X010143Y012506D02*
X006553Y012506D01*
X006553Y014284D02*
X007394Y014284D01*
X007363Y014296D02*
X007363Y014296D01*
X007258Y014402D02*
X006553Y014402D01*
X006553Y014521D02*
X007139Y014521D01*
X007130Y014530D02*
X007130Y014530D01*
X007084Y014639D02*
X006553Y014639D01*
X006553Y014758D02*
X007035Y014758D01*
X007003Y014876D02*
X006553Y014876D01*
X006553Y014995D02*
X007003Y014995D01*
X007003Y015113D02*
X006553Y015113D01*
X006553Y015232D02*
X007031Y015232D01*
X007080Y015350D02*
X006553Y015350D01*
X006553Y015469D02*
X007129Y015469D01*
X007130Y015470D02*
X007130Y015470D01*
X007247Y015587D02*
X006553Y015587D01*
X006553Y015706D02*
X007368Y015706D01*
X007363Y015704D02*
X007363Y015704D01*
X007654Y015824D02*
X006553Y015824D01*
X012154Y014521D02*
X012544Y014521D01*
X012426Y014639D02*
X012221Y014639D01*
X012221Y014758D02*
X012307Y014758D01*
X013023Y013928D02*
X020979Y013928D01*
X020860Y013810D02*
X013023Y013810D01*
X013088Y013691D02*
X013170Y013609D01*
X013170Y013525D01*
X014378Y013525D01*
X014378Y013582D01*
X014460Y013664D01*
X015206Y013664D01*
X015288Y013582D01*
X015288Y013200D01*
X016286Y013200D01*
X016880Y013499D01*
X016916Y013535D01*
X016951Y013535D01*
X016983Y013551D01*
X017031Y013535D01*
X017496Y013535D01*
X017496Y013609D01*
X017578Y013691D01*
X017496Y013573D02*
X015288Y013573D01*
X015288Y013454D02*
X016791Y013454D01*
X016999Y013335D02*
X016333Y013000D01*
X014983Y013000D01*
X014833Y013150D01*
X015288Y013217D02*
X016320Y013217D01*
X016555Y013336D02*
X015288Y013336D01*
X014378Y013573D02*
X013170Y013573D01*
X012578Y013691D02*
X012496Y013609D01*
X011372Y012625D02*
X011295Y012625D01*
X011295Y012506D02*
X011372Y012506D01*
X011372Y012388D02*
X011295Y012388D01*
X013131Y011677D02*
X014358Y011677D01*
X014358Y011558D02*
X013190Y011558D01*
X013190Y011440D02*
X014363Y011440D01*
X014480Y011321D02*
X012872Y011321D01*
X014773Y011321D02*
X014893Y011321D01*
X014893Y011440D02*
X014773Y011440D01*
X014773Y011558D02*
X014893Y011558D01*
X014893Y011914D02*
X014773Y011914D01*
X014773Y012032D02*
X014893Y012032D01*
X014893Y012151D02*
X014773Y012151D01*
X014773Y012269D02*
X014893Y012269D01*
X015288Y012743D02*
X016096Y012743D01*
X016999Y013335D02*
X017833Y013335D01*
X018833Y013335D01*
X018633Y013099D02*
X018170Y013099D01*
X018130Y012980D02*
X018633Y012980D01*
X018633Y012862D02*
X018170Y012862D01*
X018170Y012743D02*
X018633Y012743D01*
X018633Y012625D02*
X018170Y012625D01*
X018170Y012506D02*
X018633Y012506D01*
X018633Y012388D02*
X018167Y012388D01*
X018033Y012269D02*
X018633Y012269D01*
X018633Y012151D02*
X018033Y012151D01*
X018033Y012032D02*
X018633Y012032D01*
X018633Y011914D02*
X018033Y011914D01*
X018033Y011795D02*
X018633Y011795D01*
X018633Y011677D02*
X018033Y011677D01*
X018033Y011558D02*
X018633Y011558D01*
X018633Y011440D02*
X018033Y011440D01*
X018033Y011321D02*
X018633Y011321D01*
X018633Y011203D02*
X018033Y011203D01*
X018058Y011084D02*
X018633Y011084D01*
X018633Y010966D02*
X018131Y010966D01*
X018131Y010847D02*
X018633Y010847D01*
X018633Y010729D02*
X018131Y010729D01*
X018131Y010610D02*
X018633Y010610D01*
X018633Y010492D02*
X018059Y010492D01*
X018131Y010373D02*
X018633Y010373D01*
X018633Y010255D02*
X018131Y010255D01*
X018131Y010136D02*
X018633Y010136D01*
X018633Y010018D02*
X018131Y010018D01*
X018033Y009899D02*
X018633Y009899D01*
X018633Y009781D02*
X018033Y009781D01*
X018033Y009662D02*
X018633Y009662D01*
X018633Y009544D02*
X018033Y009544D01*
X018033Y009425D02*
X018633Y009425D01*
X018633Y009307D02*
X018033Y009307D01*
X018033Y009188D02*
X018633Y009188D01*
X018620Y009070D02*
X018033Y009070D01*
X018033Y008951D02*
X018502Y008951D01*
X018383Y008833D02*
X017949Y008833D01*
X017830Y008714D02*
X018265Y008714D01*
X018146Y008596D02*
X016304Y008596D01*
X015848Y008875D02*
X017708Y008875D01*
X017833Y009000D01*
X017833Y010205D01*
X017833Y010795D02*
X017833Y012665D01*
X018170Y013535D02*
X018170Y013609D01*
X018088Y013691D01*
X018170Y013573D02*
X019496Y013573D01*
X019496Y013609D02*
X019496Y013535D01*
X018170Y013535D01*
X019496Y013609D02*
X019578Y013691D01*
X019833Y013335D02*
X020668Y013335D01*
X020623Y013573D02*
X020170Y013573D01*
X020088Y013691D02*
X020742Y013691D01*
X015833Y010500D02*
X015333Y010000D01*
X015333Y009500D01*
X014469Y008596D02*
X014254Y008596D01*
X014273Y008477D02*
X014588Y008477D01*
X014706Y008359D02*
X014274Y008359D01*
X015125Y008477D02*
X015408Y008477D01*
X015413Y008359D02*
X015244Y008359D01*
X015362Y008240D02*
X015413Y008240D01*
X015848Y008125D02*
X018708Y008125D01*
X018833Y008000D01*
X015848Y007625D02*
X015848Y007015D01*
X015833Y007000D01*
X014583Y007750D02*
X014583Y006250D01*
X014833Y006000D01*
X019333Y006000D01*
X019486Y005870D02*
X027605Y005870D01*
X027605Y005752D02*
X026688Y005752D01*
X026803Y005704D02*
X026498Y005830D01*
X026168Y005830D01*
X025863Y005704D01*
X025630Y005470D01*
X025503Y005165D01*
X025503Y004835D01*
X025630Y004530D01*
X025863Y004296D01*
X026168Y004170D01*
X026292Y004170D01*
X026498Y004170D01*
X026803Y004296D01*
X026803Y004296D01*
X027037Y004530D01*
X027163Y004835D01*
X027163Y005165D01*
X027037Y005470D01*
X027037Y005470D01*
X026803Y005704D01*
X026803Y005704D01*
X026874Y005633D02*
X027605Y005633D01*
X027605Y005515D02*
X026993Y005515D01*
X027068Y005396D02*
X027605Y005396D01*
X027605Y005278D02*
X027117Y005278D01*
X027163Y005159D02*
X027605Y005159D01*
X027605Y005041D02*
X027163Y005041D01*
X027163Y004922D02*
X027605Y004922D01*
X027605Y004804D02*
X027150Y004804D01*
X027101Y004685D02*
X027605Y004685D01*
X027605Y004567D02*
X027052Y004567D01*
X027037Y004530D02*
X027037Y004530D01*
X026955Y004448D02*
X027605Y004448D01*
X027605Y004330D02*
X026837Y004330D01*
X026597Y004211D02*
X027605Y004211D01*
X027605Y004093D02*
X006553Y004093D01*
X006553Y004211D02*
X007569Y004211D01*
X007668Y004170D02*
X007875Y004170D01*
X007998Y004170D01*
X007998Y004170D01*
X008303Y004296D01*
X008303Y004296D01*
X008537Y004530D01*
X008663Y004835D01*
X008663Y005165D01*
X008537Y005470D01*
X008537Y005470D01*
X008303Y005704D01*
X007998Y005830D01*
X007668Y005830D01*
X007363Y005704D01*
X007130Y005470D01*
X007003Y005165D01*
X007003Y004835D01*
X007130Y004530D01*
X007363Y004296D01*
X007668Y004170D01*
X007363Y004296D02*
X007363Y004296D01*
X007330Y004330D02*
X006553Y004330D01*
X006553Y004448D02*
X007212Y004448D01*
X007130Y004530D02*
X007130Y004530D01*
X007115Y004567D02*
X006553Y004567D01*
X006553Y004685D02*
X007065Y004685D01*
X007016Y004804D02*
X006553Y004804D01*
X006553Y004922D02*
X007003Y004922D01*
X007003Y005041D02*
X006553Y005041D01*
X006553Y005159D02*
X007003Y005159D01*
X007050Y005278D02*
X006553Y005278D01*
X006553Y005396D02*
X007099Y005396D01*
X007130Y005470D02*
X007130Y005470D01*
X007174Y005515D02*
X006553Y005515D01*
X006553Y005633D02*
X007293Y005633D01*
X007363Y005704D02*
X007363Y005704D01*
X007479Y005752D02*
X006553Y005752D01*
X006553Y005870D02*
X014680Y005870D01*
X014562Y005989D02*
X006553Y005989D01*
X006553Y006107D02*
X014443Y006107D01*
X014383Y006226D02*
X006553Y006226D01*
X006553Y006344D02*
X014383Y006344D01*
X014383Y006463D02*
X006553Y006463D01*
X006553Y006581D02*
X014383Y006581D01*
X013217Y007292D02*
X011987Y007292D01*
X011349Y007292D02*
X011318Y007292D01*
X010799Y008359D02*
X008535Y008359D01*
X008524Y008348D02*
X008619Y008443D01*
X008670Y008567D01*
X008670Y008701D01*
X008619Y008825D01*
X008524Y008920D01*
X008400Y008971D01*
X008266Y008971D01*
X008142Y008920D01*
X008047Y008825D01*
X007996Y008701D01*
X007996Y008567D01*
X008047Y008443D01*
X008142Y008348D01*
X008266Y008297D01*
X008400Y008297D01*
X008524Y008348D01*
X008633Y008477D02*
X010799Y008477D01*
X010799Y008596D02*
X008670Y008596D01*
X008665Y008714D02*
X008675Y008714D01*
X008665Y008833D02*
X008612Y008833D01*
X008665Y008951D02*
X008449Y008951D01*
X008218Y008951D02*
X006553Y008951D01*
X006553Y008833D02*
X008055Y008833D01*
X008002Y008714D02*
X006553Y008714D01*
X006553Y008596D02*
X007996Y008596D01*
X008033Y008477D02*
X006553Y008477D01*
X006553Y008359D02*
X008132Y008359D01*
X007724Y008240D02*
X008745Y008240D01*
X008685Y008122D02*
X007784Y008122D01*
X007784Y008003D02*
X008685Y008003D01*
X008685Y007885D02*
X007784Y007885D01*
X007784Y007766D02*
X008685Y007766D01*
X008685Y007648D02*
X007784Y007648D01*
X007784Y007529D02*
X008685Y007529D01*
X008685Y007411D02*
X007784Y007411D01*
X007784Y007292D02*
X008685Y007292D01*
X006580Y008240D02*
X006553Y008240D01*
X006553Y009070D02*
X008685Y009070D01*
X008685Y009188D02*
X006553Y009188D01*
X006553Y009307D02*
X008685Y009307D01*
X008685Y009425D02*
X006553Y009425D01*
X006553Y009544D02*
X008685Y009544D01*
X008685Y009662D02*
X006553Y009662D01*
X006553Y009781D02*
X008685Y009781D01*
X008685Y009899D02*
X006553Y009899D01*
X006553Y010018D02*
X008685Y010018D01*
X008685Y010136D02*
X008580Y010136D01*
X008652Y010255D02*
X008685Y010255D01*
X008087Y010136D02*
X006553Y010136D01*
X006553Y010255D02*
X008015Y010255D01*
X007996Y010373D02*
X006553Y010373D01*
X006553Y010492D02*
X008020Y010492D01*
X008100Y010610D02*
X006553Y010610D01*
X006553Y010729D02*
X009647Y010729D01*
X012045Y009662D02*
X012643Y009662D01*
X012643Y009544D02*
X012045Y009544D01*
X012045Y009425D02*
X012643Y009425D01*
X012643Y009307D02*
X012045Y009307D01*
X011996Y009188D02*
X012643Y009188D01*
X010799Y008714D02*
X009960Y008714D01*
X013818Y007875D02*
X014458Y007875D01*
X014583Y007750D01*
X014383Y007648D02*
X014254Y007648D01*
X014254Y007529D02*
X014383Y007529D01*
X014383Y007411D02*
X014176Y007411D01*
X015104Y005752D02*
X012525Y005752D01*
X012168Y005500D02*
X015333Y005500D01*
X015646Y005633D02*
X025793Y005633D01*
X025863Y005704D02*
X025863Y005704D01*
X025979Y005752D02*
X015563Y005752D01*
X015673Y005515D02*
X025674Y005515D01*
X025630Y005470D02*
X025630Y005470D01*
X025599Y005396D02*
X015658Y005396D01*
X015592Y005278D02*
X025550Y005278D01*
X025503Y005159D02*
X008663Y005159D01*
X008663Y005041D02*
X025503Y005041D01*
X025503Y004922D02*
X008663Y004922D01*
X008650Y004804D02*
X025516Y004804D01*
X025565Y004685D02*
X008601Y004685D01*
X008552Y004567D02*
X025615Y004567D01*
X025630Y004530D02*
X025630Y004530D01*
X025712Y004448D02*
X008455Y004448D01*
X008537Y004530D02*
X008537Y004530D01*
X008337Y004330D02*
X025830Y004330D01*
X026069Y004211D02*
X008097Y004211D01*
X006553Y003974D02*
X027605Y003974D01*
X027605Y003856D02*
X006553Y003856D01*
X006553Y003737D02*
X027605Y003737D01*
X027605Y005989D02*
X019605Y005989D01*
X019723Y006107D02*
X027605Y006107D01*
X027605Y006226D02*
X019842Y006226D01*
X019960Y006344D02*
X027605Y006344D01*
X024873Y006581D02*
X024793Y006581D01*
X024793Y006700D02*
X024873Y006700D01*
X024873Y006818D02*
X024793Y006818D01*
X024793Y006937D02*
X024873Y006937D01*
X015075Y005278D02*
X012525Y005278D01*
X011142Y005278D02*
X010592Y005278D01*
X010075Y005278D02*
X008617Y005278D01*
X008568Y005396D02*
X010008Y005396D01*
X009993Y005515D02*
X008493Y005515D01*
X008374Y005633D02*
X010020Y005633D01*
X010104Y005752D02*
X008188Y005752D01*
X008303Y005704D02*
X008303Y005704D01*
X010563Y005752D02*
X011142Y005752D01*
D22*
X015848Y007875D02*
X015848Y008125D01*
M02*
