G75*
G70*
%OFA0B0*%
%FSLAX24Y24*%
%IPPOS*%
%LPD*%
%AMOC8*
5,1,8,0,0,1.08239X$1,22.5*
%
%ADD10C,0.0740*%
%ADD11C,0.0400*%
%ADD12C,0.0100*%
%ADD13C,0.0120*%
D10*
X024833Y007000D03*
X024833Y008000D03*
X024833Y009000D03*
X024833Y010000D03*
X024833Y011000D03*
X024833Y012000D03*
X024833Y013000D03*
D11*
X018333Y011500D03*
X016333Y012500D03*
X015833Y010500D03*
X012333Y008500D03*
X010333Y010000D03*
X015833Y007000D03*
X017833Y006500D03*
X015333Y005500D03*
X018833Y008000D03*
X010333Y005500D03*
X011333Y013500D03*
D12*
X010333Y010000D02*
X010333Y005500D01*
D13*
X006553Y003720D02*
X006553Y016150D01*
X027605Y016150D01*
X027605Y003720D01*
X006553Y003720D01*
X006553Y003737D02*
X027605Y003737D01*
X027605Y003856D02*
X006553Y003856D01*
X006553Y003974D02*
X027605Y003974D01*
X027605Y004093D02*
X006553Y004093D01*
X006553Y004211D02*
X007569Y004211D01*
X007668Y004170D02*
X007875Y004170D01*
X007998Y004170D01*
X007998Y004170D01*
X008303Y004296D01*
X008303Y004296D01*
X008537Y004530D01*
X008663Y004835D01*
X008663Y005165D01*
X008537Y005470D01*
X008537Y005470D01*
X008303Y005704D01*
X007998Y005830D01*
X007668Y005830D01*
X007363Y005704D01*
X007130Y005470D01*
X007003Y005165D01*
X007003Y004835D01*
X007130Y004530D01*
X007363Y004296D01*
X007668Y004170D01*
X007363Y004296D02*
X007363Y004296D01*
X007330Y004330D02*
X006553Y004330D01*
X006553Y004448D02*
X007212Y004448D01*
X007130Y004530D02*
X007130Y004530D01*
X007115Y004567D02*
X006553Y004567D01*
X006553Y004685D02*
X007065Y004685D01*
X007016Y004804D02*
X006553Y004804D01*
X006553Y004922D02*
X007003Y004922D01*
X007003Y005041D02*
X006553Y005041D01*
X006553Y005159D02*
X007003Y005159D01*
X007050Y005278D02*
X006553Y005278D01*
X006553Y005396D02*
X007099Y005396D01*
X007130Y005470D02*
X007130Y005470D01*
X007174Y005515D02*
X006553Y005515D01*
X006553Y005633D02*
X007293Y005633D01*
X007363Y005704D02*
X007363Y005704D01*
X007479Y005752D02*
X006553Y005752D01*
X006553Y005870D02*
X010143Y005870D01*
X010143Y005789D02*
X010141Y005788D01*
X010045Y005693D01*
X009993Y005568D01*
X009993Y005432D01*
X010045Y005307D01*
X010141Y005212D01*
X010266Y005160D01*
X010401Y005160D01*
X010526Y005212D01*
X010622Y005307D01*
X010673Y005432D01*
X010673Y005568D01*
X010622Y005693D01*
X010526Y005788D01*
X010523Y005789D01*
X010523Y009711D01*
X010526Y009712D01*
X010622Y009807D01*
X010673Y009932D01*
X010673Y010068D01*
X010622Y010193D01*
X010526Y010288D01*
X010401Y010340D01*
X010266Y010340D01*
X010141Y010288D01*
X010045Y010193D01*
X009993Y010068D01*
X009993Y009932D01*
X010045Y009807D01*
X010141Y009712D01*
X010143Y009711D01*
X010143Y005789D01*
X010104Y005752D02*
X008188Y005752D01*
X008303Y005704D02*
X008303Y005704D01*
X008374Y005633D02*
X010020Y005633D01*
X009993Y005515D02*
X008493Y005515D01*
X008568Y005396D02*
X010008Y005396D01*
X010075Y005278D02*
X008617Y005278D01*
X008663Y005159D02*
X025503Y005159D01*
X025503Y005165D02*
X025503Y004835D01*
X025630Y004530D01*
X025863Y004296D01*
X026168Y004170D01*
X026292Y004170D01*
X026498Y004170D01*
X026803Y004296D01*
X026803Y004296D01*
X027037Y004530D01*
X027163Y004835D01*
X027163Y005165D01*
X027037Y005470D01*
X027037Y005470D01*
X026803Y005704D01*
X026498Y005830D01*
X026168Y005830D01*
X025863Y005704D01*
X025630Y005470D01*
X025503Y005165D01*
X025550Y005278D02*
X015592Y005278D01*
X015622Y005307D02*
X015673Y005432D01*
X015673Y005557D01*
X016033Y005917D01*
X016033Y006719D01*
X016122Y006807D01*
X016173Y006932D01*
X016173Y007068D01*
X016122Y007193D01*
X016026Y007288D01*
X015901Y007340D01*
X015766Y007340D01*
X015641Y007288D01*
X015545Y007193D01*
X015493Y007068D01*
X015493Y006932D01*
X015545Y006807D01*
X015633Y006719D01*
X015633Y006083D01*
X015390Y005840D01*
X015266Y005840D01*
X015141Y005788D01*
X015045Y005693D01*
X014993Y005568D01*
X014993Y005432D01*
X015045Y005307D01*
X015141Y005212D01*
X015266Y005160D01*
X015401Y005160D01*
X015526Y005212D01*
X015622Y005307D01*
X015658Y005396D02*
X025599Y005396D01*
X025630Y005470D02*
X025630Y005470D01*
X025674Y005515D02*
X015673Y005515D01*
X015749Y005633D02*
X025793Y005633D01*
X025863Y005704D02*
X025863Y005704D01*
X025979Y005752D02*
X015868Y005752D01*
X015986Y005870D02*
X023180Y005870D01*
X023133Y005917D02*
X023250Y005800D01*
X025416Y005800D01*
X025916Y006300D01*
X026033Y006417D01*
X026033Y009583D01*
X025533Y010083D01*
X025416Y010200D01*
X025303Y010200D01*
X025266Y010289D01*
X025122Y010432D01*
X024959Y010500D01*
X025122Y010568D01*
X025266Y010711D01*
X025343Y010899D01*
X025343Y011101D01*
X025266Y011289D01*
X025122Y011432D01*
X024959Y011500D01*
X025122Y011568D01*
X025266Y011711D01*
X025343Y011899D01*
X025343Y012101D01*
X025266Y012289D01*
X025122Y012432D01*
X024959Y012500D01*
X025122Y012568D01*
X025266Y012711D01*
X025343Y012899D01*
X025343Y013101D01*
X025266Y013289D01*
X025122Y013432D01*
X024935Y013510D01*
X024732Y013510D01*
X024544Y013432D01*
X024401Y013289D01*
X024323Y013101D01*
X024323Y012899D01*
X024360Y012810D01*
X024250Y012700D01*
X016614Y012700D01*
X016526Y012788D01*
X016401Y012840D01*
X016266Y012840D01*
X016141Y012788D01*
X016045Y012693D01*
X015993Y012568D01*
X015993Y012432D01*
X016045Y012307D01*
X016141Y012212D01*
X016169Y012200D01*
X012750Y012200D01*
X012633Y012083D01*
X012133Y011583D01*
X012133Y008781D01*
X012045Y008693D01*
X011993Y008568D01*
X011993Y008432D01*
X012045Y008307D01*
X012141Y008212D01*
X012266Y008160D01*
X012401Y008160D01*
X012526Y008212D01*
X012622Y008307D01*
X012673Y008432D01*
X012673Y008568D01*
X012622Y008693D01*
X012533Y008781D01*
X012533Y011417D01*
X012916Y011800D01*
X024364Y011800D01*
X024401Y011711D01*
X024544Y011568D01*
X024708Y011500D01*
X024544Y011432D01*
X024401Y011289D01*
X024364Y011200D01*
X023750Y011200D01*
X023633Y011083D01*
X023250Y010700D01*
X016114Y010700D01*
X016026Y010788D01*
X015901Y010840D01*
X015766Y010840D01*
X015641Y010788D01*
X015545Y010693D01*
X015493Y010568D01*
X015493Y010432D01*
X015545Y010307D01*
X015641Y010212D01*
X015766Y010160D01*
X015901Y010160D01*
X016026Y010212D01*
X016114Y010300D01*
X023416Y010300D01*
X023916Y010800D01*
X024364Y010800D01*
X024401Y010711D01*
X024544Y010568D01*
X024708Y010500D01*
X024544Y010432D01*
X024401Y010289D01*
X024323Y010101D01*
X024323Y009899D01*
X012533Y009899D01*
X012533Y009781D02*
X024372Y009781D01*
X024401Y009711D02*
X024544Y009568D01*
X024708Y009500D01*
X024544Y009432D01*
X024401Y009289D01*
X024364Y009200D01*
X023750Y009200D01*
X023633Y009083D01*
X022750Y008200D01*
X019114Y008200D01*
X019026Y008288D01*
X018901Y008340D01*
X018766Y008340D01*
X018641Y008288D01*
X018545Y008193D01*
X018493Y008068D01*
X018493Y007932D01*
X018545Y007807D01*
X018641Y007712D01*
X018766Y007660D01*
X018901Y007660D01*
X019026Y007712D01*
X019114Y007800D01*
X022916Y007800D01*
X023916Y008800D01*
X024364Y008800D01*
X024401Y008711D01*
X024544Y008568D01*
X024708Y008500D01*
X024544Y008432D01*
X024401Y008289D01*
X024323Y008101D01*
X024323Y007899D01*
X024401Y007711D01*
X024544Y007568D01*
X024685Y007509D01*
X024630Y007491D01*
X024556Y007453D01*
X024488Y007404D01*
X024429Y007345D01*
X024380Y007278D01*
X024342Y007203D01*
X024316Y007124D01*
X024303Y007042D01*
X024303Y007040D01*
X024793Y007040D01*
X024793Y006960D01*
X024303Y006960D01*
X024303Y006958D01*
X024316Y006876D01*
X024342Y006797D01*
X024380Y006722D01*
X024429Y006655D01*
X024488Y006596D01*
X024556Y006547D01*
X024630Y006509D01*
X024709Y006483D01*
X024792Y006470D01*
X024793Y006470D01*
X024793Y006960D01*
X024873Y006960D01*
X024873Y006470D01*
X024875Y006470D01*
X024957Y006483D01*
X025037Y006509D01*
X025111Y006547D01*
X025179Y006596D01*
X025238Y006655D01*
X025287Y006722D01*
X025325Y006797D01*
X025350Y006876D01*
X025363Y006958D01*
X025363Y006960D01*
X024873Y006960D01*
X024873Y007040D01*
X025363Y007040D01*
X025363Y007042D01*
X025350Y007124D01*
X025325Y007203D01*
X025287Y007278D01*
X025238Y007345D01*
X025179Y007404D01*
X025111Y007453D01*
X025037Y007491D01*
X024981Y007509D01*
X025122Y007568D01*
X025266Y007711D01*
X025343Y007899D01*
X025343Y008101D01*
X025266Y008289D01*
X025122Y008432D01*
X024959Y008500D01*
X025122Y008568D01*
X025266Y008711D01*
X025343Y008899D01*
X025343Y009101D01*
X025266Y009289D01*
X025122Y009432D01*
X024959Y009500D01*
X025122Y009568D01*
X025266Y009711D01*
X025287Y009763D01*
X025633Y009417D01*
X025633Y006583D01*
X025250Y006200D01*
X023416Y006200D01*
X022916Y006700D01*
X018114Y006700D01*
X018026Y006788D01*
X017901Y006840D01*
X017766Y006840D01*
X017641Y006788D01*
X017545Y006693D01*
X017493Y006568D01*
X017493Y006432D01*
X017545Y006307D01*
X017641Y006212D01*
X017766Y006160D01*
X017901Y006160D01*
X018026Y006212D01*
X018114Y006300D01*
X022750Y006300D01*
X023133Y005917D01*
X023062Y005989D02*
X016033Y005989D01*
X016033Y006107D02*
X022943Y006107D01*
X022825Y006226D02*
X018040Y006226D01*
X017627Y006226D02*
X016033Y006226D01*
X016033Y006344D02*
X017530Y006344D01*
X017493Y006463D02*
X016033Y006463D01*
X016033Y006581D02*
X017499Y006581D01*
X017552Y006700D02*
X016033Y006700D01*
X016126Y006818D02*
X017713Y006818D01*
X017954Y006818D02*
X024335Y006818D01*
X024307Y006937D02*
X016173Y006937D01*
X016173Y007055D02*
X024305Y007055D01*
X024332Y007174D02*
X016129Y007174D01*
X016017Y007292D02*
X024390Y007292D01*
X024497Y007411D02*
X010523Y007411D01*
X010523Y007529D02*
X024638Y007529D01*
X024465Y007648D02*
X010523Y007648D01*
X010523Y007766D02*
X018586Y007766D01*
X018513Y007885D02*
X010523Y007885D01*
X010523Y008003D02*
X018493Y008003D01*
X018516Y008122D02*
X010523Y008122D01*
X010523Y008240D02*
X012112Y008240D01*
X012024Y008359D02*
X010523Y008359D01*
X010523Y008477D02*
X011993Y008477D01*
X012005Y008596D02*
X010523Y008596D01*
X010523Y008714D02*
X012067Y008714D01*
X012133Y008833D02*
X010523Y008833D01*
X010523Y008951D02*
X012133Y008951D01*
X012133Y009070D02*
X010523Y009070D01*
X010523Y009188D02*
X012133Y009188D01*
X012133Y009307D02*
X010523Y009307D01*
X010523Y009425D02*
X012133Y009425D01*
X012133Y009544D02*
X010523Y009544D01*
X010523Y009662D02*
X012133Y009662D01*
X012133Y009781D02*
X010595Y009781D01*
X010660Y009899D02*
X012133Y009899D01*
X012133Y010018D02*
X010673Y010018D01*
X010645Y010136D02*
X012133Y010136D01*
X012133Y010255D02*
X010560Y010255D01*
X010107Y010255D02*
X008652Y010255D01*
X008670Y010299D02*
X008619Y010175D01*
X008524Y010080D01*
X008400Y010029D01*
X008266Y010029D01*
X008142Y010080D01*
X008047Y010175D01*
X007996Y010299D01*
X007996Y010433D01*
X008047Y010557D01*
X008142Y010652D01*
X008266Y010703D01*
X008400Y010703D01*
X008524Y010652D01*
X008619Y010557D01*
X008670Y010433D01*
X008670Y010299D01*
X008670Y010373D02*
X012133Y010373D01*
X012133Y010492D02*
X008646Y010492D01*
X008566Y010610D02*
X012133Y010610D01*
X012133Y010729D02*
X006553Y010729D01*
X006553Y010847D02*
X012133Y010847D01*
X012133Y010966D02*
X006553Y010966D01*
X006553Y011084D02*
X012133Y011084D01*
X012133Y011203D02*
X006553Y011203D01*
X006553Y011321D02*
X012133Y011321D01*
X012133Y011440D02*
X006553Y011440D01*
X006553Y011558D02*
X012133Y011558D01*
X012227Y011677D02*
X006553Y011677D01*
X006553Y011795D02*
X012346Y011795D01*
X012464Y011914D02*
X006553Y011914D01*
X006553Y012032D02*
X012583Y012032D01*
X012701Y012151D02*
X006553Y012151D01*
X006553Y012269D02*
X016083Y012269D01*
X016012Y012388D02*
X006553Y012388D01*
X006553Y012506D02*
X015993Y012506D01*
X016017Y012625D02*
X006553Y012625D01*
X006553Y012743D02*
X016096Y012743D01*
X016333Y012500D02*
X024333Y012500D01*
X024833Y013000D01*
X025343Y012980D02*
X027605Y012980D01*
X027605Y012862D02*
X025328Y012862D01*
X025279Y012743D02*
X027605Y012743D01*
X027605Y012625D02*
X025179Y012625D01*
X024973Y012506D02*
X027605Y012506D01*
X027605Y012388D02*
X025167Y012388D01*
X025274Y012269D02*
X027605Y012269D01*
X027605Y012151D02*
X025323Y012151D01*
X025343Y012032D02*
X027605Y012032D01*
X027605Y011914D02*
X025343Y011914D01*
X025300Y011795D02*
X027605Y011795D01*
X027605Y011677D02*
X025231Y011677D01*
X025099Y011558D02*
X027605Y011558D01*
X027605Y011440D02*
X025105Y011440D01*
X025234Y011321D02*
X027605Y011321D01*
X027605Y011203D02*
X025301Y011203D01*
X025343Y011084D02*
X027605Y011084D01*
X027605Y010966D02*
X025343Y010966D01*
X025322Y010847D02*
X027605Y010847D01*
X027605Y010729D02*
X025273Y010729D01*
X025165Y010610D02*
X027605Y010610D01*
X027605Y010492D02*
X024979Y010492D01*
X025182Y010373D02*
X027605Y010373D01*
X027605Y010255D02*
X025280Y010255D01*
X025480Y010136D02*
X027605Y010136D01*
X027605Y010018D02*
X025599Y010018D01*
X025717Y009899D02*
X027605Y009899D01*
X027605Y009781D02*
X025836Y009781D01*
X025954Y009662D02*
X027605Y009662D01*
X027605Y009544D02*
X026033Y009544D01*
X026033Y009425D02*
X027605Y009425D01*
X027605Y009307D02*
X026033Y009307D01*
X026033Y009188D02*
X027605Y009188D01*
X027605Y009070D02*
X026033Y009070D01*
X026033Y008951D02*
X027605Y008951D01*
X027605Y008833D02*
X026033Y008833D01*
X026033Y008714D02*
X027605Y008714D01*
X027605Y008596D02*
X026033Y008596D01*
X026033Y008477D02*
X027605Y008477D01*
X027605Y008359D02*
X026033Y008359D01*
X026033Y008240D02*
X027605Y008240D01*
X027605Y008122D02*
X026033Y008122D01*
X026033Y008003D02*
X027605Y008003D01*
X027605Y007885D02*
X026033Y007885D01*
X026033Y007766D02*
X027605Y007766D01*
X027605Y007648D02*
X026033Y007648D01*
X026033Y007529D02*
X027605Y007529D01*
X027605Y007411D02*
X026033Y007411D01*
X026033Y007292D02*
X027605Y007292D01*
X027605Y007174D02*
X026033Y007174D01*
X026033Y007055D02*
X027605Y007055D01*
X027605Y006937D02*
X026033Y006937D01*
X026033Y006818D02*
X027605Y006818D01*
X027605Y006700D02*
X026033Y006700D01*
X026033Y006581D02*
X027605Y006581D01*
X027605Y006463D02*
X026033Y006463D01*
X025960Y006344D02*
X027605Y006344D01*
X027605Y006226D02*
X025842Y006226D01*
X025723Y006107D02*
X027605Y006107D01*
X027605Y005989D02*
X025605Y005989D01*
X025486Y005870D02*
X027605Y005870D01*
X027605Y005752D02*
X026688Y005752D01*
X026803Y005704D02*
X026803Y005704D01*
X026874Y005633D02*
X027605Y005633D01*
X027605Y005515D02*
X026993Y005515D01*
X027068Y005396D02*
X027605Y005396D01*
X027605Y005278D02*
X027117Y005278D01*
X027163Y005159D02*
X027605Y005159D01*
X027605Y005041D02*
X027163Y005041D01*
X027163Y004922D02*
X027605Y004922D01*
X027605Y004804D02*
X027150Y004804D01*
X027101Y004685D02*
X027605Y004685D01*
X027605Y004567D02*
X027052Y004567D01*
X027037Y004530D02*
X027037Y004530D01*
X026955Y004448D02*
X027605Y004448D01*
X027605Y004330D02*
X026837Y004330D01*
X026597Y004211D02*
X027605Y004211D01*
X026069Y004211D02*
X008097Y004211D01*
X008337Y004330D02*
X025830Y004330D01*
X025863Y004296D02*
X025863Y004296D01*
X025712Y004448D02*
X008455Y004448D01*
X008537Y004530D02*
X008537Y004530D01*
X008552Y004567D02*
X025615Y004567D01*
X025630Y004530D02*
X025630Y004530D01*
X025565Y004685D02*
X008601Y004685D01*
X008650Y004804D02*
X025516Y004804D01*
X025503Y004922D02*
X008663Y004922D01*
X008663Y005041D02*
X025503Y005041D01*
X025333Y006000D02*
X025833Y006500D01*
X025833Y009500D01*
X025333Y010000D01*
X024833Y010000D01*
X024323Y010018D02*
X012533Y010018D01*
X012533Y010136D02*
X024338Y010136D01*
X024387Y010255D02*
X016069Y010255D01*
X015598Y010255D02*
X012533Y010255D01*
X012533Y010373D02*
X015518Y010373D01*
X015493Y010492D02*
X012533Y010492D01*
X012533Y010610D02*
X015511Y010610D01*
X015581Y010729D02*
X012533Y010729D01*
X012533Y010847D02*
X023398Y010847D01*
X023516Y010966D02*
X012533Y010966D01*
X012533Y011084D02*
X023635Y011084D01*
X023833Y011000D02*
X024833Y011000D01*
X024433Y011321D02*
X012533Y011321D01*
X012533Y011203D02*
X024365Y011203D01*
X024562Y011440D02*
X012556Y011440D01*
X012674Y011558D02*
X024568Y011558D01*
X024436Y011677D02*
X012793Y011677D01*
X012911Y011795D02*
X024366Y011795D01*
X024833Y012000D02*
X012833Y012000D01*
X012333Y011500D01*
X012333Y008500D01*
X012643Y008359D02*
X022909Y008359D01*
X023028Y008477D02*
X012673Y008477D01*
X012662Y008596D02*
X023146Y008596D01*
X023265Y008714D02*
X012600Y008714D01*
X012533Y008833D02*
X023383Y008833D01*
X023502Y008951D02*
X012533Y008951D01*
X012533Y009070D02*
X023620Y009070D01*
X023739Y009188D02*
X012533Y009188D01*
X012533Y009307D02*
X024419Y009307D01*
X024537Y009425D02*
X012533Y009425D01*
X012533Y009544D02*
X024603Y009544D01*
X024450Y009662D02*
X012533Y009662D01*
X010143Y009662D02*
X006553Y009662D01*
X006553Y009544D02*
X010143Y009544D01*
X010143Y009425D02*
X006553Y009425D01*
X006553Y009307D02*
X010143Y009307D01*
X010143Y009188D02*
X006553Y009188D01*
X006553Y009070D02*
X010143Y009070D01*
X010143Y008951D02*
X008449Y008951D01*
X008400Y008971D02*
X008266Y008971D01*
X008142Y008920D01*
X008047Y008825D01*
X007996Y008701D01*
X007996Y008567D01*
X008047Y008443D01*
X008142Y008348D01*
X008266Y008297D01*
X008400Y008297D01*
X008524Y008348D01*
X008619Y008443D01*
X008670Y008567D01*
X008670Y008701D01*
X008619Y008825D01*
X008524Y008920D01*
X008400Y008971D01*
X008218Y008951D02*
X006553Y008951D01*
X006553Y008833D02*
X008055Y008833D01*
X008002Y008714D02*
X006553Y008714D01*
X006553Y008596D02*
X007996Y008596D01*
X008033Y008477D02*
X006553Y008477D01*
X006553Y008359D02*
X008132Y008359D01*
X008535Y008359D02*
X010143Y008359D01*
X010143Y008477D02*
X008633Y008477D01*
X008670Y008596D02*
X010143Y008596D01*
X010143Y008714D02*
X008665Y008714D01*
X008612Y008833D02*
X010143Y008833D01*
X010143Y008240D02*
X006553Y008240D01*
X006553Y008122D02*
X010143Y008122D01*
X010143Y008003D02*
X006553Y008003D01*
X006553Y007885D02*
X010143Y007885D01*
X010143Y007766D02*
X006553Y007766D01*
X006553Y007648D02*
X010143Y007648D01*
X010143Y007529D02*
X006553Y007529D01*
X006553Y007411D02*
X010143Y007411D01*
X010143Y007292D02*
X006553Y007292D01*
X006553Y007174D02*
X010143Y007174D01*
X010143Y007055D02*
X006553Y007055D01*
X006553Y006937D02*
X010143Y006937D01*
X010143Y006818D02*
X006553Y006818D01*
X006553Y006700D02*
X010143Y006700D01*
X010143Y006581D02*
X006553Y006581D01*
X006553Y006463D02*
X010143Y006463D01*
X010143Y006344D02*
X006553Y006344D01*
X006553Y006226D02*
X010143Y006226D01*
X010143Y006107D02*
X006553Y006107D01*
X006553Y005989D02*
X010143Y005989D01*
X010523Y005989D02*
X015539Y005989D01*
X015633Y006107D02*
X010523Y006107D01*
X010523Y006226D02*
X015633Y006226D01*
X015633Y006344D02*
X010523Y006344D01*
X010523Y006463D02*
X015633Y006463D01*
X015633Y006581D02*
X010523Y006581D01*
X010523Y006700D02*
X015633Y006700D01*
X015541Y006818D02*
X010523Y006818D01*
X010523Y006937D02*
X015493Y006937D01*
X015493Y007055D02*
X010523Y007055D01*
X010523Y007174D02*
X015537Y007174D01*
X015650Y007292D02*
X010523Y007292D01*
X012554Y008240D02*
X018593Y008240D01*
X018833Y008000D02*
X022833Y008000D01*
X023833Y009000D01*
X024833Y009000D01*
X025307Y009188D02*
X025633Y009188D01*
X025633Y009070D02*
X025343Y009070D01*
X025343Y008951D02*
X025633Y008951D01*
X025633Y008833D02*
X025316Y008833D01*
X025267Y008714D02*
X025633Y008714D01*
X025633Y008596D02*
X025150Y008596D01*
X025014Y008477D02*
X025633Y008477D01*
X025633Y008359D02*
X025196Y008359D01*
X025286Y008240D02*
X025633Y008240D01*
X025633Y008122D02*
X025335Y008122D01*
X025343Y008003D02*
X025633Y008003D01*
X025633Y007885D02*
X025338Y007885D01*
X025288Y007766D02*
X025633Y007766D01*
X025633Y007648D02*
X025202Y007648D01*
X025029Y007529D02*
X025633Y007529D01*
X025633Y007411D02*
X025170Y007411D01*
X025276Y007292D02*
X025633Y007292D01*
X025633Y007174D02*
X025334Y007174D01*
X025361Y007055D02*
X025633Y007055D01*
X025633Y006937D02*
X025360Y006937D01*
X025331Y006818D02*
X025633Y006818D01*
X025633Y006700D02*
X025270Y006700D01*
X025158Y006581D02*
X025631Y006581D01*
X025513Y006463D02*
X023154Y006463D01*
X023035Y006581D02*
X024508Y006581D01*
X024397Y006700D02*
X022917Y006700D01*
X022833Y006500D02*
X023333Y006000D01*
X025333Y006000D01*
X025276Y006226D02*
X023391Y006226D01*
X023272Y006344D02*
X025394Y006344D01*
X024873Y006581D02*
X024793Y006581D01*
X024793Y006700D02*
X024873Y006700D01*
X024873Y006818D02*
X024793Y006818D01*
X024793Y006937D02*
X024873Y006937D01*
X024378Y007766D02*
X019080Y007766D01*
X019074Y008240D02*
X022791Y008240D01*
X023119Y008003D02*
X024323Y008003D01*
X024329Y007885D02*
X023001Y007885D01*
X023238Y008122D02*
X024332Y008122D01*
X024381Y008240D02*
X023356Y008240D01*
X023475Y008359D02*
X024471Y008359D01*
X024652Y008477D02*
X023593Y008477D01*
X023712Y008596D02*
X024517Y008596D01*
X024400Y008714D02*
X023830Y008714D01*
X025130Y009425D02*
X025625Y009425D01*
X025633Y009307D02*
X025248Y009307D01*
X025064Y009544D02*
X025507Y009544D01*
X025388Y009662D02*
X025217Y009662D01*
X024401Y009711D02*
X024323Y009899D01*
X024485Y010373D02*
X023489Y010373D01*
X023608Y010492D02*
X024687Y010492D01*
X024502Y010610D02*
X023726Y010610D01*
X023845Y010729D02*
X024394Y010729D01*
X023833Y011000D02*
X023333Y010500D01*
X015833Y010500D01*
X016086Y010729D02*
X023279Y010729D01*
X024294Y012743D02*
X016571Y012743D01*
X010022Y010136D02*
X008580Y010136D01*
X008087Y010136D02*
X006553Y010136D01*
X006553Y010018D02*
X009993Y010018D01*
X010007Y009899D02*
X006553Y009899D01*
X006553Y009781D02*
X010072Y009781D01*
X008015Y010255D02*
X006553Y010255D01*
X006553Y010373D02*
X007996Y010373D01*
X008020Y010492D02*
X006553Y010492D01*
X006553Y010610D02*
X008100Y010610D01*
X006553Y012862D02*
X024339Y012862D01*
X024323Y012980D02*
X006553Y012980D01*
X006553Y013099D02*
X024323Y013099D01*
X024371Y013217D02*
X006553Y013217D01*
X006553Y013336D02*
X024448Y013336D01*
X024597Y013454D02*
X006553Y013454D01*
X006553Y013573D02*
X027605Y013573D01*
X027605Y013691D02*
X006553Y013691D01*
X006553Y013810D02*
X027605Y013810D01*
X027605Y013928D02*
X006553Y013928D01*
X006553Y014047D02*
X027605Y014047D01*
X027605Y014165D02*
X006553Y014165D01*
X006553Y014284D02*
X007394Y014284D01*
X007363Y014296D02*
X007668Y014170D01*
X007792Y014170D01*
X007998Y014170D01*
X008303Y014296D01*
X008303Y014296D01*
X008537Y014530D01*
X008663Y014835D01*
X008663Y015165D01*
X008537Y015470D01*
X008537Y015470D01*
X008303Y015704D01*
X007998Y015830D01*
X007668Y015830D01*
X007363Y015704D01*
X007130Y015470D01*
X007003Y015165D01*
X007003Y014835D01*
X007130Y014530D01*
X007363Y014296D01*
X007363Y014296D01*
X007258Y014402D02*
X006553Y014402D01*
X006553Y014521D02*
X007139Y014521D01*
X007130Y014530D02*
X007130Y014530D01*
X007084Y014639D02*
X006553Y014639D01*
X006553Y014758D02*
X007035Y014758D01*
X007003Y014876D02*
X006553Y014876D01*
X006553Y014995D02*
X007003Y014995D01*
X007003Y015113D02*
X006553Y015113D01*
X006553Y015232D02*
X007031Y015232D01*
X007080Y015350D02*
X006553Y015350D01*
X006553Y015469D02*
X007129Y015469D01*
X007130Y015470D02*
X007130Y015470D01*
X007130Y015470D01*
X007247Y015587D02*
X006553Y015587D01*
X006553Y015706D02*
X007368Y015706D01*
X007363Y015704D02*
X007363Y015704D01*
X007654Y015824D02*
X006553Y015824D01*
X006553Y015943D02*
X027605Y015943D01*
X027605Y016061D02*
X006553Y016061D01*
X008013Y015824D02*
X026154Y015824D01*
X026168Y015830D02*
X025863Y015704D01*
X025630Y015470D01*
X025503Y015165D01*
X025503Y014835D01*
X025630Y014530D01*
X025863Y014296D01*
X026168Y014170D01*
X026375Y014170D01*
X026498Y014170D01*
X026498Y014170D01*
X026803Y014296D01*
X026803Y014296D01*
X027037Y014530D01*
X027163Y014835D01*
X027163Y015165D01*
X027037Y015470D01*
X027037Y015470D01*
X026803Y015704D01*
X026498Y015830D01*
X026168Y015830D01*
X025868Y015706D02*
X008299Y015706D01*
X008303Y015704D02*
X008303Y015704D01*
X008420Y015587D02*
X025747Y015587D01*
X025863Y015704D02*
X025863Y015704D01*
X025630Y015470D02*
X025630Y015470D01*
X025629Y015469D02*
X008538Y015469D01*
X008587Y015350D02*
X025580Y015350D01*
X025531Y015232D02*
X008636Y015232D01*
X008663Y015113D02*
X025503Y015113D01*
X025503Y014995D02*
X008663Y014995D01*
X008663Y014876D02*
X025503Y014876D01*
X025535Y014758D02*
X008631Y014758D01*
X008582Y014639D02*
X025584Y014639D01*
X025630Y014530D02*
X025630Y014530D01*
X025639Y014521D02*
X008528Y014521D01*
X008537Y014530D02*
X008537Y014530D01*
X008409Y014402D02*
X025758Y014402D01*
X025863Y014296D02*
X025863Y014296D01*
X025894Y014284D02*
X008272Y014284D01*
X015833Y007000D02*
X015833Y006000D01*
X015333Y005500D01*
X015020Y005633D02*
X010646Y005633D01*
X010673Y005515D02*
X014993Y005515D01*
X015008Y005396D02*
X010658Y005396D01*
X010592Y005278D02*
X015075Y005278D01*
X015104Y005752D02*
X010563Y005752D01*
X010523Y005870D02*
X015420Y005870D01*
X017833Y006500D02*
X022833Y006500D01*
X025343Y013099D02*
X027605Y013099D01*
X027605Y013217D02*
X025295Y013217D01*
X025219Y013336D02*
X027605Y013336D01*
X027605Y013454D02*
X025070Y013454D01*
X026772Y014284D02*
X027605Y014284D01*
X027605Y014402D02*
X026909Y014402D01*
X027028Y014521D02*
X027605Y014521D01*
X027605Y014639D02*
X027082Y014639D01*
X027037Y014530D02*
X027037Y014530D01*
X027131Y014758D02*
X027605Y014758D01*
X027605Y014876D02*
X027163Y014876D01*
X027163Y014995D02*
X027605Y014995D01*
X027605Y015113D02*
X027163Y015113D01*
X027136Y015232D02*
X027605Y015232D01*
X027605Y015350D02*
X027087Y015350D01*
X027038Y015469D02*
X027605Y015469D01*
X027605Y015587D02*
X026920Y015587D01*
X026803Y015704D02*
X026803Y015704D01*
X026799Y015706D02*
X027605Y015706D01*
X027605Y015824D02*
X026513Y015824D01*
M02*
